<svg width="1428" height="900" viewBox="0 0 1428 900" fill="none" xmlns="http://www.w3.org/2000/svg">
<path d="M14.9856 362.01L14.5729 362.92L14.9856 362.01ZM591.069 432.522L590.598 433.396L591.069 432.522ZM990.889 893.048L991.254 892.118L990.889 893.048ZM1625.45 834.162L1625.72 833.198L1625.45 834.162ZM-418.857 -23.962C-397.251 -4.67205 -372.006 23.4068 -343.093 56.1498C-314.196 88.8748 -281.667 126.248 -245.532 164.055C-173.271 239.665 -86.5292 317.118 14.5729 362.92L15.3984 361.099C-85.352 315.456 -171.879 238.219 -244.084 162.668C-280.185 124.899 -312.687 87.5705 -341.595 54.8294C-370.485 22.0967 -395.812 -6.07385 -417.524 -25.4557L-418.857 -23.962ZM14.5729 362.92C115.767 408.765 211.25 399.806 305.605 392.726C400.003 385.644 493.286 380.451 590.598 433.396L591.545 431.64C493.673 378.387 399.844 383.652 305.458 390.728C211.024 397.816 116.057 406.7 15.3984 361.099L14.5729 362.92ZM590.598 433.396C687.877 486.337 735.975 581.084 785.72 672.964C835.397 764.752 886.702 853.666 990.523 893.979L991.254 892.118C888.199 852.102 837.184 763.857 787.478 672.014C737.814 580.269 689.451 484.919 591.545 431.64L590.598 433.396ZM990.523 893.979C1042.43 914.133 1102.73 919.009 1165.27 915.394C1227.82 911.78 1292.68 899.665 1353.7 885.797C1384.23 878.863 1413.8 871.487 1441.65 864.51C1469.51 857.533 1495.65 850.954 1519.32 845.618C1542.98 840.282 1564.15 836.185 1582.08 834.162C1600.03 832.142 1614.63 832.21 1625.18 835.126L1625.72 833.198C1614.78 830.172 1599.87 830.139 1581.85 832.17C1563.83 834.206 1542.57 838.315 1518.87 843.662C1495.18 849.008 1469.02 855.587 1441.16 862.565C1413.31 869.542 1383.76 876.917 1353.27 883.845C1292.27 897.703 1227.54 909.793 1165.15 913.396C1102.77 917.005 1042.79 912.128 991.254 892.118L990.523 893.979ZM1625.18 835.126C1635.86 838.064 1640.88 842.365 1642.08 847.385C1643.3 852.479 1640.73 858.855 1634.79 866.311C1622.98 881.154 1598.71 899.202 1570.34 917.707C1541.99 936.192 1509.68 955.039 1481.88 971.511C1454.12 987.95 1430.76 1002.06 1420.46 1011.01L1421.77 1012.52C1431.9 1003.72 1455.06 989.712 1482.9 973.234C1510.68 956.776 1543.04 937.896 1571.42 919.383C1599.78 900.901 1624.31 882.687 1636.36 867.557C1642.35 860.027 1645.48 852.98 1644.03 846.924C1642.56 840.787 1636.56 836.188 1625.72 833.198L1625.18 835.126Z" fill="#303F9F" fill-opacity="0.0509804"/>
<path d="M109.482 345.459L109.214 346.424L109.482 345.459ZM708.629 364.939L709.137 364.082L708.629 364.939ZM1070.15 910.216L1070.62 909.336L1070.15 910.216ZM1687 890.51L1687.43 889.607L1687 890.51ZM-372.386 66.2289C-348.373 80.1979 -319.807 100.932 -287.037 125.136C-254.29 149.341 -217.37 177 -176.702 204.773C-95.3737 260.338 1.00528 316.428 109.214 346.424L109.75 344.494C1.84952 314.582 -94.3182 258.632 -175.574 203.121C-216.201 175.367 -253.088 147.744 -285.851 123.532C-318.596 99.3285 -347.254 78.5308 -371.379 64.4998L-372.386 66.2289ZM109.214 346.424C217.526 376.457 319.538 353.019 418.207 336.301C516.949 319.561 612.387 309.525 708.117 365.805L709.137 364.082C612.731 307.409 516.649 317.582 417.872 334.328C319.03 351.077 217.533 374.385 109.75 344.494L109.214 346.424ZM708.117 365.805C803.831 422.066 845.182 531.717 887.119 640.874C928.994 749.851 971.445 858.331 1069.67 911.097L1070.62 909.336C973.163 856.984 930.922 749.301 888.988 640.161C847.122 531.189 805.561 420.763 709.137 364.082L708.117 365.805ZM1069.67 911.097C1118.78 937.479 1177.91 947.438 1239.9 948.062C1301.91 948.689 1366.86 939.983 1427.69 928.978C1458.1 923.476 1487.5 917.405 1514.98 911.628C1542.47 905.856 1568.04 900.383 1590.83 896.097C1613.62 891.802 1633.59 888.701 1649.88 887.646C1666.21 886.59 1678.67 887.6 1686.57 891.413L1687.43 889.607C1679.04 885.559 1666.12 884.593 1649.75 885.646C1633.33 886.706 1613.27 889.833 1590.46 894.129C1567.64 898.424 1542.05 903.899 1514.57 909.666C1487.09 915.443 1457.72 921.513 1427.34 927.009C1366.56 938.003 1301.74 946.684 1239.92 946.06C1178.1 945.439 1119.34 935.507 1070.62 909.336L1069.67 911.097ZM1686.57 891.413C1690.54 893.325 1692.99 895.476 1694.24 897.763C1695.46 900.016 1695.59 902.535 1694.64 905.365C1693.69 908.226 1691.66 911.389 1688.59 914.808C1685.53 918.213 1681.49 921.84 1676.59 925.639C1657.01 940.854 1624.14 958.626 1587.32 976.553C1550.52 994.479 1509.88 1012.53 1474.77 1028.31C1439.7 1044.08 1410.09 1057.62 1395.47 1066.5L1396.51 1068.21C1411 1059.41 1440.46 1045.93 1475.59 1030.13C1510.68 1014.36 1551.37 996.299 1588.2 978.354C1625.01 960.423 1658.05 942.577 1677.82 927.216C1682.77 923.374 1686.91 919.667 1690.08 916.142C1693.24 912.621 1695.47 909.226 1696.54 906.002C1697.63 902.741 1697.53 899.635 1695.99 896.808C1694.47 894.017 1691.61 891.627 1687.43 889.607L1686.57 891.413Z" fill="#303F9F" fill-opacity="0.0509804"/>
<path d="M68.953 263.497L68.4573 264.37L68.953 263.497ZM486.48 684.842L486.846 683.912L486.48 684.842ZM1099.22 674.25L1099.53 673.302L1099.22 674.25ZM1545.16 1032.72L1545.61 1031.82L1545.16 1032.72ZM-481.412 136.551C-453.838 142.967 -417.734 147.3 -376.135 151.911C-334.508 156.513 -287.35 161.409 -237.577 168.924C-138.035 183.975 -28.1467 209.529 68.4573 264.37L69.4445 262.633C-27.4761 207.615 -137.646 182.011 -237.28 166.951C-287.1 159.426 -334.309 154.529 -375.912 149.916C-417.537 145.304 -453.519 140.982 -480.96 134.604L-481.412 136.551ZM68.4573 264.37C164.985 319.156 217.728 403.733 272.193 485.116C326.627 566.453 382.771 644.573 486.114 685.774L486.846 683.912C384.14 642.965 328.288 565.339 273.857 484.002C219.454 402.714 166.459 317.693 69.4445 262.633L68.4573 264.37ZM486.114 685.774C589.457 726.975 689.998 706.848 790.934 685.242C891.945 663.613 993.338 640.51 1098.91 675.206L1099.53 673.302C993.363 638.414 891.422 661.686 790.512 683.285C689.516 704.904 589.556 724.861 486.846 683.912L486.114 685.774ZM1098.91 675.206C1204.54 709.909 1296.58 789.605 1371.92 865.632C1409.61 903.647 1443.03 940.657 1471.96 970.704C1500.82 1000.68 1525.23 1023.75 1544.71 1033.61L1545.61 1031.82C1526.49 1022.15 1502.31 999.349 1473.4 969.314C1444.55 939.357 1411.03 902.235 1373.34 864.22C1297.96 788.168 1205.64 708.169 1099.53 673.302L1098.91 675.206ZM1544.71 1033.61C1549.57 1036.07 1553.68 1037.73 1557.09 1038.65C1560.49 1039.57 1563.28 1039.78 1565.49 1039.24C1567.76 1038.69 1569.35 1037.36 1570.25 1035.39C1571.14 1033.47 1571.35 1031.02 1571.08 1028.21C1570.54 1022.59 1568.03 1015.1 1564.25 1006.48C1560.46 997.843 1555.36 987.978 1549.58 977.562C1538.01 956.752 1523.66 933.692 1511.46 913.838C1505.36 903.895 1499.8 894.763 1495.4 887.09C1490.98 879.409 1487.76 873.256 1486.3 869.272L1484.42 869.958C1485.95 874.128 1489.25 880.416 1493.66 888.094C1498.09 895.788 1503.66 904.946 1509.76 914.88C1521.97 934.761 1536.29 957.772 1547.83 978.539C1553.6 988.915 1558.66 998.72 1562.42 1007.29C1566.18 1015.87 1568.58 1023.11 1569.09 1028.4C1569.34 1031.04 1569.11 1033.09 1568.43 1034.55C1567.79 1035.95 1566.71 1036.89 1565.02 1037.29C1563.28 1037.72 1560.86 1037.59 1557.61 1036.72C1554.37 1035.85 1550.41 1034.25 1545.61 1031.82L1544.71 1033.61Z" fill="#303F9F" fill-opacity="0.0509804"/>
<path d="M56.6288 456.55L56.2957 457.493L56.6288 456.55ZM706.433 363.944L706.112 364.896L706.433 363.944ZM1109.96 816.271L1110.49 815.426L1109.96 816.271ZM1653.1 959.682L1652.73 960.613L1653.1 959.682ZM-343.124 -5.14627C-323.243 17.8854 -301.489 53.6372 -276.717 95.5593C-251.966 137.45 -224.233 185.452 -192.436 232.875C-128.86 327.693 -48.9078 420.404 56.2957 457.493L56.9615 455.607C-47.5966 418.746 -127.243 326.515 -190.775 231.76C-222.532 184.399 -250.23 136.457 -274.998 94.5476C-299.741 52.6603 -321.59 16.7448 -341.607 -6.45813L-343.124 -5.14627ZM56.2957 457.493C161.581 494.61 271.733 453.289 381.543 411.931C491.53 370.512 601.177 329.06 706.112 364.896L706.749 363C601.017 326.892 490.644 368.707 380.835 410.064C270.85 451.484 161.433 492.438 56.9615 455.607L56.2957 457.493ZM706.112 364.896C811.046 400.732 864.443 483.706 915.322 572.906C966.162 662.022 1014.5 757.382 1109.42 817.115L1110.49 815.426C1016.08 756.013 967.991 661.181 917.064 571.916C866.185 482.716 812.472 399.105 706.749 363L706.112 364.896ZM1109.42 817.115C1204.26 876.799 1323.23 906.051 1426.89 923.699C1478.73 932.52 1526.77 938.451 1566.07 943.835C1605.42 949.22 1635.88 954.032 1652.73 960.613L1653.46 958.75C1636.34 952.067 1605.6 947.226 1566.34 941.85C1527.01 936.464 1479.02 930.544 1427.22 921.721C1323.62 904.089 1204.98 874.889 1110.49 815.426L1109.42 817.115ZM1652.73 960.613C1656.96 962.26 1659.98 963.659 1661.93 964.818C1662.92 965.396 1663.6 965.898 1664.03 966.311C1664.48 966.745 1664.52 966.972 1664.52 966.994C1664.52 966.994 1664.52 966.985 1664.53 966.976C1664.52 966.963 1664.53 966.967 1664.52 966.972C1664.51 966.99 1664.47 967.05 1664.34 967.145C1664.07 967.339 1663.57 967.555 1662.77 967.752C1661.2 968.14 1658.79 968.391 1655.63 968.488C1643 968.89 1619.32 966.922 1592.15 964.049C1537.94 958.315 1469.97 948.975 1449.58 947.891L1449.48 949.886C1469.81 950.964 1537.57 960.289 1591.94 966.04C1619.08 968.91 1642.89 970.895 1655.69 970.491C1658.89 970.388 1661.47 970.139 1663.25 969.694C1664.14 969.471 1664.93 969.176 1665.49 968.773C1666.09 968.352 1666.57 967.715 1666.51 966.854C1666.46 966.086 1665.98 965.429 1665.42 964.878C1664.83 964.306 1664 963.712 1662.95 963.095C1660.86 961.852 1657.73 960.413 1653.46 958.75L1652.73 960.613Z" fill="#303F9F" fill-opacity="0.0509804"/>
</svg>
