<svg width="42" height="40" viewBox="0 0 42 40" fill="none" xmlns="http://www.w3.org/2000/svg">
<path d="M35 14C35 16.9 34.14 19.56 32.66 21.78C30.5 24.98 27.08 27.24 23.1 27.82C22.42 27.94 21.72 28 21 28C20.28 28 19.58 27.94 18.9 27.82C14.92 27.24 11.5 24.98 9.34 21.78C7.86 19.56 7 16.9 7 14C7 6.26 13.26 0 21 0C28.74 0 35 6.26 35 14Z" fill="#303F9F" fill-opacity="0.4"/>
<path d="M39.5012 32.9401L36.2012 33.72C35.4612 33.9 34.8812 34.4601 34.7212 35.2001L34.0212 38.1401C33.6412 39.7401 31.6012 40.2201 30.5412 38.9601L21.0012 28L11.4612 38.98C10.4011 40.24 8.36113 39.76 7.98113 38.16L7.28113 35.22C7.10113 34.48 6.52113 33.9 5.80113 33.74L2.50113 32.9601C0.981134 32.6001 0.441134 30.7 1.54113 29.6L9.34113 21.8C11.5012 25 14.9212 27.26 18.9012 27.84C19.5812 27.96 20.2812 28.02 21.0012 28.02C21.7212 28.02 22.4212 27.96 23.1012 27.84C27.0812 27.26 30.5012 25 32.6612 21.8L40.4612 29.6C41.5612 30.68 41.0212 32.5801 39.5012 32.9401Z" fill="#303F9F"/>
<path d="M22.1588 7.96L23.3388 10.32C23.4988 10.64 23.9188 10.96 24.2988 11.02L26.4389 11.38C27.7989 11.6 28.1189 12.6 27.1389 13.58L25.4789 15.24C25.1989 15.52 25.0389 16.06 25.1389 16.46L25.6189 18.52C25.9989 20.14 25.1389 20.78 23.6988 19.92L21.6988 18.74C21.3388 18.52 20.7388 18.52 20.3788 18.74L18.3788 19.92C16.9388 20.76 16.0788 20.14 16.4588 18.52L16.9388 16.46C17.0188 16.08 16.8788 15.52 16.5988 15.24L14.9388 13.58C13.9588 12.6 14.2788 11.62 15.6388 11.38L17.7788 11.02C18.1388 10.96 18.5588 10.64 18.7188 10.32L19.8988 7.96C20.4788 6.68 21.5188 6.68 22.1588 7.96Z" fill="#303F9F"/>
</svg>
