<svg width="24" height="21" viewBox="0 0 24 21" fill="none" xmlns="http://www.w3.org/2000/svg">
<path d="M1 19.25C0.585786 19.25 0.25 19.5858 0.25 20C0.25 20.4142 0.585786 20.75 1 20.75V19.25ZM23 20.75C23.4142 20.75 23.75 20.4142 23.75 20C23.75 19.5858 23.4142 19.25 23 19.25V20.75ZM1 20.75H23V19.25H1V20.75Z" fill="#00838F"/>
<path d="M19.03 20.0101C19.03 20.4243 19.3658 20.7601 19.78 20.7601C20.1942 20.7601 20.53 20.4243 20.53 20.0101H19.03ZM20.53 15.55C20.53 15.1358 20.1942 14.8 19.78 14.8C19.3658 14.8 19.03 15.1358 19.03 15.55H20.53ZM20.53 20.0101V15.55H19.03V20.0101H20.53Z" fill="#00838F"/>
<path d="M19.8 8.14014C18.1658 8.14014 16.85 9.45594 16.85 11.0901H18.35C18.35 10.2844 18.9942 9.64014 19.8 9.64014V8.14014ZM16.85 11.0901V13.3601H18.35V11.0901H16.85ZM16.85 13.3601C16.85 14.9943 18.1658 16.3101 19.8 16.3101V14.8101C18.9942 14.8101 18.35 14.1659 18.35 13.3601H16.85ZM19.8 16.3101C21.4342 16.3101 22.75 14.9943 22.75 13.3601H21.25C21.25 14.1659 20.6058 14.8101 19.8 14.8101V16.3101ZM22.75 13.3601V11.0901H21.25V13.3601H22.75ZM22.75 11.0901C22.75 9.45594 21.4342 8.14014 19.8 8.14014V9.64014C20.6058 9.64014 21.25 10.2844 21.25 11.0901H22.75Z" fill="#00838F"/>
<path d="M1.34998 20C1.34998 20.4142 1.68576 20.75 2.09998 20.75C2.51419 20.75 2.84998 20.4142 2.84998 20H1.34998ZM13.55 20C13.55 20.4142 13.8858 20.75 14.3 20.75C14.7142 20.75 15.05 20.4142 15.05 20H13.55ZM2.84998 20V4.03001H1.34998V20H2.84998ZM2.84998 4.03001C2.84998 3.13971 3.0711 2.60771 3.38172 2.29401C3.69098 1.98161 4.2135 1.76001 5.09003 1.76001V0.26001C3.97656 0.26001 3.00405 0.54341 2.31579 1.23861C1.62887 1.93241 1.34998 2.91031 1.34998 4.03001H2.84998ZM5.09003 1.76001H11.32V0.26001H5.09003V1.76001ZM11.32 1.76001C12.1966 1.76001 12.7156 1.98161 13.022 2.29261C13.3304 2.60571 13.55 3.13781 13.55 4.03001H15.05C15.05 2.91221 14.7746 1.93431 14.0906 1.23991C13.4045 0.54351 12.4335 0.26001 11.32 0.26001V1.76001ZM13.55 4.03001V20H15.05V4.03001H13.55Z" fill="#00838F"/>
<path d="M5.79999 5.5C5.38577 5.5 5.04999 5.83579 5.04999 6.25C5.04999 6.66421 5.38577 7 5.79999 7V5.5ZM10.75 7C11.1642 7 11.5 6.66421 11.5 6.25C11.5 5.83579 11.1642 5.5 10.75 5.5V7ZM5.79999 7H10.75V5.5H5.79999V7Z" fill="#00838F"/>
<path d="M5.79999 9.25C5.38577 9.25 5.04999 9.58579 5.04999 10C5.04999 10.4142 5.38577 10.75 5.79999 10.75V9.25ZM10.75 10.75C11.1642 10.75 11.5 10.4142 11.5 10C11.5 9.58579 11.1642 9.25 10.75 9.25V10.75ZM5.79999 10.75H10.75V9.25H5.79999V10.75Z" fill="#00838F"/>
<path d="M7.5 20C7.5 20.4142 7.83579 20.75 8.25 20.75C8.66421 20.75 9 20.4142 9 20H7.5ZM9 16.25C9 15.8358 8.66421 15.5 8.25 15.5C7.83579 15.5 7.5 15.8358 7.5 16.25H9ZM9 20V16.25H7.5V20H9Z" fill="#00838F"/>
</svg>
