<svg width="20" height="23" viewBox="0 0 20 23" fill="none" xmlns="http://www.w3.org/2000/svg">
<path d="M6.75 1.62891C6.75 1.2147 6.41421 0.878906 6 0.878906C5.58579 0.878906 5.25 1.2147 5.25 1.62891H6.75ZM5.25 4.62891C5.25 5.04312 5.58579 5.37891 6 5.37891C6.41421 5.37891 6.75 5.04312 6.75 4.62891H5.25ZM5.25 1.62891V4.62891H6.75V1.62891H5.25Z" fill="white"/>
<path d="M14.75 1.62891C14.75 1.2147 14.4142 0.878906 14 0.878906C13.5858 0.878906 13.25 1.2147 13.25 1.62891H14.75ZM13.25 4.62891C13.25 5.04312 13.5858 5.37891 14 5.37891C14.4142 5.37891 14.75 5.04312 14.75 4.62891H13.25ZM13.25 1.62891V4.62891H14.75V1.62891H13.25Z" fill="white"/>
<path d="M5 11.8789C4.58579 11.8789 4.25 12.2147 4.25 12.6289C4.25 13.0431 4.58579 13.3789 5 13.3789V11.8789ZM13 13.3789C13.4142 13.3789 13.75 13.0431 13.75 12.6289C13.75 12.2147 13.4142 11.8789 13 11.8789V13.3789ZM5 13.3789H13V11.8789H5V13.3789Z" fill="white"/>
<path d="M5 15.8789C4.58579 15.8789 4.25 16.2147 4.25 16.6289C4.25 17.0431 4.58579 17.3789 5 17.3789V15.8789ZM10 17.3789C10.4142 17.3789 10.75 17.0431 10.75 16.6289C10.75 16.2147 10.4142 15.8789 10 15.8789V17.3789ZM5 17.3789H10V15.8789H5V17.3789Z" fill="white"/>
<path d="M14 3.12891L14.0405 2.38001C14.027 2.37931 14.0135 2.37891 14 2.37891V3.12891ZM6 3.12891V2.37891C5.98575 2.37891 5.9715 2.37931 5.95728 2.38011L6 3.12891ZM13.9595 3.87781C15.5617 3.96441 16.5594 4.30771 17.191 5.01031C17.8359 5.72771 18.25 6.98541 18.25 9.27891H19.75C19.75 6.87231 19.3291 5.14511 18.3065 4.00751C17.2706 2.85511 15.7683 2.47341 14.0405 2.38001L13.9595 3.87781ZM18.25 9.27891V15.4589H19.75V9.27891H18.25ZM18.25 15.4589C18.25 17.5081 17.9883 18.8021 17.3034 19.6083C16.6456 20.3826 15.43 20.8889 13 20.8889V22.3889C15.57 22.3889 17.3544 21.8651 18.4466 20.5795C19.5117 19.3256 19.75 17.5296 19.75 15.4589H18.25ZM13 20.8889H7V22.3889H13V20.8889ZM7 20.8889C4.57004 20.8889 3.35439 20.3826 2.69659 19.6083C2.01173 18.8021 1.75 17.5081 1.75 15.4589H0.25C0.25 17.5296 0.488268 19.3256 1.55341 20.5795C2.64561 21.8651 4.42996 22.3889 7 22.3889V20.8889ZM1.75 15.4589V9.27891H0.25V15.4589H1.75ZM1.75 9.27891C1.75 6.98551 2.16413 5.73051 2.80868 5.01441C3.44062 4.31241 4.43891 3.96921 6.04272 3.87771L5.95728 2.38011C4.23109 2.47861 2.72938 2.86041 1.69382 4.01091C0.670873 5.14731 0.25 6.87231 0.25 9.27891H1.75ZM6 3.87891H14V2.37891H6V3.87891Z" fill="white"/>
</svg>
