<svg width="20" height="22" viewBox="0 0 20 22" fill="none" xmlns="http://www.w3.org/2000/svg">
<path d="M6.75 1C6.75 0.58579 6.41421 0.25 6 0.25C5.58579 0.25 5.25 0.58579 5.25 1H6.75ZM5.25 4C5.25 4.41421 5.58579 4.75 6 4.75C6.41421 4.75 6.75 4.41421 6.75 4H5.25ZM5.25 1V4H6.75V1H5.25Z" fill="#979797"/>
<path d="M14.75 1C14.75 0.58579 14.4142 0.25 14 0.25C13.5858 0.25 13.25 0.58579 13.25 1H14.75ZM13.25 4C13.25 4.41421 13.5858 4.75 14 4.75C14.4142 4.75 14.75 4.41421 14.75 4H13.25ZM13.25 1V4H14.75V1H13.25Z" fill="#979797"/>
<path d="M5 11.25C4.58579 11.25 4.25 11.5858 4.25 12C4.25 12.4142 4.58579 12.75 5 12.75V11.25ZM13 12.75C13.4142 12.75 13.75 12.4142 13.75 12C13.75 11.5858 13.4142 11.25 13 11.25V12.75ZM5 12.75H13V11.25H5V12.75Z" fill="#979797"/>
<path d="M5 15.25C4.58579 15.25 4.25 15.5858 4.25 16C4.25 16.4142 4.58579 16.75 5 16.75V15.25ZM10 16.75C10.4142 16.75 10.75 16.4142 10.75 16C10.75 15.5858 10.4142 15.25 10 15.25V16.75ZM5 16.75H10V15.25H5V16.75Z" fill="#979797"/>
<path d="M13.75 2.75L13.7905 2.0011C13.777 2.0004 13.7635 2 13.75 2V2.75ZM5.75 2.75V2C5.73575 2 5.7215 2.0004 5.70728 2.0012L5.75 2.75ZM13.7095 3.4989C15.3117 3.5855 16.3094 3.9288 16.941 4.6314C17.5859 5.3488 18 6.6065 18 8.9H19.5C19.5 6.4934 19.0791 4.7662 18.0565 3.6286C17.0206 2.4762 15.5183 2.0945 13.7905 2.0011L13.7095 3.4989ZM18 8.9V15.08H19.5V8.9H18ZM18 15.08C18 17.1292 17.7383 18.4232 17.0534 19.2294C16.3956 20.0037 15.18 20.51 12.75 20.51V22.01C15.32 22.01 17.1044 21.4862 18.1966 20.2006C19.2617 18.9467 19.5 17.1507 19.5 15.08H18ZM12.75 20.51H6.75V22.01H12.75V20.51ZM6.75 20.51C4.32004 20.51 3.10439 20.0037 2.44659 19.2294C1.76173 18.4232 1.5 17.1292 1.5 15.08H0C0 17.1507 0.238268 18.9467 1.30341 20.2006C2.39561 21.4862 4.17996 22.01 6.75 22.01V20.51ZM1.5 15.08V8.9H0V15.08H1.5ZM1.5 8.9C1.5 6.6066 1.91413 5.3516 2.55868 4.6355C3.19062 3.9335 4.18891 3.5903 5.79272 3.4988L5.70728 2.0012C3.98109 2.0997 2.47938 2.4815 1.44382 3.632C0.420873 4.7684 0 6.4934 0 8.9H1.5ZM5.75 3.5H13.75V2H5.75V3.5Z" fill="#979797"/>
</svg>
