<svg width="9" height="14" viewBox="0 0 9 14" fill="none" xmlns="http://www.w3.org/2000/svg">
<path d="M6.99509 13.2959C7.47049 13.5769 8.08379 13.4192 8.36469 12.9437C8.64569 12.4682 8.48799 11.855 8.01249 11.5741L6.99509 13.2959ZM8.01259 1.92085C8.48799 1.63985 8.64569 1.02662 8.36469 0.551164C8.08369 0.0757132 7.47039 -0.0819168 6.99499 0.199094L8.01259 1.92085ZM7.50379 12.435C8.01249 11.5741 8.01239 11.574 8.01249 11.5741C8.01209 11.5739 8.01149 11.5734 8.01039 11.5728C8.00839 11.5716 8.00499 11.5696 8.00029 11.5668C7.99099 11.5612 7.97639 11.5525 7.95709 11.5408C7.91839 11.5174 7.86039 11.4821 7.78589 11.4359C7.63679 11.3434 7.42199 11.2078 7.16359 11.0375C6.64499 10.6959 5.95869 10.2202 5.27679 9.67845C4.58899 9.132 3.93629 8.5423 3.46462 7.97547C2.96115 7.37042 2.8056 6.95863 2.8056 6.74747H0.805603C0.805603 7.69656 1.36233 8.57583 1.92726 9.25474C2.524 9.97186 3.29585 10.659 4.03259 11.2444C4.77529 11.8344 5.51339 12.3455 6.06329 12.7077C6.33909 12.8894 6.56949 13.035 6.73199 13.1357C6.81329 13.1861 6.87769 13.2254 6.92249 13.2524C6.94489 13.2659 6.96229 13.2764 6.97449 13.2837C6.98069 13.2874 6.98539 13.2902 6.98889 13.2923C6.99059 13.2933 6.99199 13.2941 6.99299 13.2947C6.99349 13.295 6.99479 13.2957 6.99509 13.2959C6.99529 13.296 6.99509 13.2959 7.50379 12.435ZM2.8056 6.74747C2.8056 6.53658 2.96107 6.12492 3.4646 5.51984C3.93629 4.95302 4.58899 4.36327 5.27679 3.81677C5.95869 3.27494 6.64509 2.79913 7.16359 2.45747C7.42209 2.2872 7.63679 2.15154 7.78589 2.05907C7.86049 2.01287 7.91849 1.97752 7.95719 1.95411C7.97649 1.94241 7.99109 1.9337 8.00039 1.92811C8.00509 1.92531 8.00849 1.9233 8.01049 1.92208C8.01149 1.92148 8.01219 1.92106 8.01259 1.92085C8.01259 1.92085 8.01269 1.92075 8.01259 1.92085C8.01249 1.9209 8.01259 1.92085 7.50379 1.05997C6.99499 0.199094 6.99509 0.198993 6.99499 0.199094C6.99519 0.198993 6.99489 0.199145 6.99499 0.199094C6.99469 0.199298 6.99339 0.200007 6.99289 0.200313C6.99189 0.200925 6.99049 0.201742 6.98879 0.202762C6.98539 0.204803 6.98059 0.207656 6.97449 0.211304C6.96219 0.218601 6.94479 0.229082 6.92239 0.242611C6.87769 0.269667 6.81319 0.308942 6.73189 0.359354C6.56939 0.460126 6.33899 0.6057 6.06329 0.787401C5.51339 1.1497 4.77519 1.66082 4.03259 2.2509C3.29583 2.83632 2.524 3.52346 1.92728 4.24052C1.3624 4.91932 0.805603 5.79852 0.805603 6.74747H2.8056Z" fill="white"/>
</svg>
